<svg width="11" height="6" viewBox="0 0 11 6" fill="none" xmlns="http://www.w3.org/2000/svg">
<path fill-rule="evenodd" clip-rule="evenodd" d="M10.2975 4.78729C10.3645 4.85426 10.398 4.93127 10.398 5.01832C10.398 5.10537 10.3645 5.18238 10.2975 5.24935L9.79529 5.75158C9.72833 5.81854 9.65132 5.85203 9.56426 5.85203C9.47721 5.85203 9.4002 5.81854 9.33324 5.75158L5.38569 1.80404L1.43815 5.75158C1.37118 5.81854 1.29417 5.85203 1.20712 5.85203C1.12007 5.85203 1.04306 5.81854 0.976092 5.75158L0.47386 5.24935C0.406895 5.18238 0.373413 5.10537 0.373413 5.01832C0.373413 4.93127 0.406895 4.85426 0.47386 4.78729L5.15467 0.106489C5.22163 0.0395247 5.29864 0.00604248 5.38569 0.00604248C5.47275 0.00604248 5.54976 0.0395247 5.61672 0.106489L10.2975 4.78729Z" fill="#1E3A8A"/>
</svg>
