<svg width="14" height="16" viewBox="0 0 14 16" fill="none" xmlns="http://www.w3.org/2000/svg">
<path d="M4.28544 2.14289H4.14258C4.22115 2.14289 4.28544 2.07861 4.28544 2.00004V2.14289H9.71401V2.00004C9.71401 2.07861 9.77829 2.14289 9.85687 2.14289H9.71401V3.42861H10.9997V2.00004C10.9997 1.36968 10.4872 0.857178 9.85687 0.857178H4.14258C3.51222 0.857178 2.99972 1.36968 2.99972 2.00004V3.42861H4.28544V2.14289ZM13.2854 3.42861H0.714007C0.397935 3.42861 0.142578 3.68396 0.142578 4.00004V4.57146C0.142578 4.65004 0.206864 4.71432 0.285435 4.71432H1.36401L1.80508 14.0536C1.83365 14.6625 2.33722 15.1429 2.94615 15.1429H11.0533C11.664 15.1429 12.1658 14.6643 12.1944 14.0536L12.6354 4.71432H13.714C13.7926 4.71432 13.8569 4.65004 13.8569 4.57146V4.00004C13.8569 3.68396 13.6015 3.42861 13.2854 3.42861ZM10.9158 13.8572H3.08365L2.65151 4.71432H11.3479L10.9158 13.8572Z" fill="#FCFCFC"/>
</svg>
