<svg width="28" height="28" viewBox="0 0 28 28" fill="none" xmlns="http://www.w3.org/2000/svg">
<path d="M0.9375 14.7201H1.4375H0.9375ZM0.9375 25.0603H0.4375H0.9375ZM25.0529 27.0625V26.5625V27.0625ZM2.94712 27.0625V27.5625H2.94712L2.94712 27.0625ZM27.0625 14.7202H26.5625H27.0625ZM27.0625 25.0603H27.5625H27.0625ZM25.9991 12.0068L25.632 12.3463L25.9991 12.0068ZM16.9558 2.22845L16.5887 2.56794L16.9558 2.22845ZM11.0442 2.22844L11.4113 2.56793L11.0442 2.22844ZM2.00091 12.0068L1.63382 11.6673L2.00091 12.0068ZM9.98077 17.0517H10.4808H9.98077ZM9.98077 26.0614H9.48077H9.98077ZM17.0144 27.0625L17.0144 26.5625H17.0144V27.0625ZM10.9856 27.0625V27.5625V27.0625ZM18.0192 17.0518H18.5192H18.0192ZM18.0192 26.0614H17.5192H18.0192ZM17.0144 16.0507L17.0144 16.5507L17.0144 16.0507ZM10.9856 16.0507L10.9856 16.5507H10.9856L10.9856 16.0507ZM0.4375 14.7201L0.4375 25.0603H1.4375L1.4375 14.7201H0.4375ZM25.0529 26.5625L2.94712 26.5625L2.94712 27.5625L25.0529 27.5625V26.5625ZM26.5625 14.7202V25.0603H27.5625V14.7202H26.5625ZM26.3662 11.6673L17.3229 1.88897L16.5887 2.56794L25.632 12.3463L26.3662 11.6673ZM10.6771 1.88896L1.63382 11.6673L2.36799 12.3463L11.4113 2.56793L10.6771 1.88896ZM17.3229 1.88897C15.5331 -0.0463163 12.4669 -0.0463247 10.6771 1.88896L11.4113 2.56793C12.8052 1.06069 15.1948 1.06069 16.5887 2.56794L17.3229 1.88897ZM27.5625 14.7202C27.5625 13.5887 27.1353 12.499 26.3662 11.6673L25.632 12.3463C26.2305 12.9935 26.5625 13.8409 26.5625 14.7202H27.5625ZM1.4375 14.7201C1.4375 13.8409 1.76948 12.9934 2.36799 12.3463L1.63382 11.6673C0.864735 12.4989 0.437501 13.5887 0.4375 14.7201H1.4375ZM0.4375 25.0603C0.4375 26.444 1.56285 27.5625 2.94712 27.5625L2.94712 26.5625C2.11162 26.5625 1.4375 25.8882 1.4375 25.0603H0.4375ZM25.0529 27.5625C26.4371 27.5625 27.5625 26.444 27.5625 25.0603H26.5625C26.5625 25.8882 25.8884 26.5625 25.0529 26.5625V27.5625ZM9.48077 17.0517L9.48077 26.0614H10.4808L10.4808 17.0517H9.48077ZM17.0144 26.5625H10.9856V27.5625H17.0144V26.5625ZM17.5192 17.0518L17.5192 26.0614H18.5192L18.5192 17.0518H17.5192ZM17.0144 15.5507L10.9856 15.5507L10.9856 16.5507L17.0144 16.5507L17.0144 15.5507ZM18.5192 17.0518C18.5192 16.221 17.8438 15.5507 17.0144 15.5507L17.0144 16.5507C17.295 16.5507 17.5192 16.7768 17.5192 17.0518H18.5192ZM10.4808 17.0517C10.4808 16.7767 10.705 16.5507 10.9856 16.5507L10.9856 15.5507C10.1563 15.5507 9.48077 16.221 9.48077 17.0517H10.4808ZM9.48077 26.0614C9.48077 26.8922 10.1562 27.5625 10.9856 27.5625L10.9856 26.5625C10.705 26.5625 10.4808 26.3364 10.4808 26.0614H9.48077ZM17.0144 27.5625C17.8438 27.5625 18.5192 26.8922 18.5192 26.0614H17.5192C17.5192 26.3364 17.295 26.5625 17.0144 26.5625L17.0144 27.5625Z" fill="#4E46B4"/>
</svg>
