<svg width="24" height="24" viewBox="0 0 24 24" fill="none" xmlns="http://www.w3.org/2000/svg">
<path d="M12 0C5.38281 0 0 5.3833 0 12C0 18.6167 5.38281 24 12 24C15.2051 24 18.2188 22.752 20.4854 20.4854C22.752 18.2188 24 15.2056 24 12C24 5.3833 18.6172 0 12 0ZM15.5352 15.5356C14.5908 16.48 13.335 17 12 17C9.24316 17 7 14.7568 7 12C7 9.24316 9.24316 7 12 7C14.7568 7 17 9.24316 17 12C17 13.3359 16.4795 14.5913 15.5352 15.5356Z" fill="#303C42"/>
<path d="M12.5 1.01123C18.168 1.26611 22.7334 5.83203 22.9893 11.5H17.9795C17.7383 8.58984 15.4102 6.26172 12.5 6.02051V1.01123Z" fill="#FF8F00"/>
<path d="M1 12C1 6.10333 5.66736 1.28943 11.5 1.02533V6.02533C8.42505 6.28076 6 8.86017 6 12C6 15.3086 8.69141 18 12 18C13.4344 18 14.7901 17.4967 15.8715 16.579L19.4076 20.1147C17.377 21.9721 14.7704 23 12 23C5.93457 23 1 18.0654 1 12Z" fill="#1E88E5"/>
<path d="M20.124 19.417L16.5811 15.875C17.3915 14.9207 17.8532 13.7471 17.9564 12.5H22.9771C22.8618 15.0837 21.8698 17.5089 20.124 19.417Z" fill="#FFCA28"/>
<path d="M12 0C5.38281 0 0 5.3833 0 12C0 18.6167 5.38281 24 12 24C15.2051 24 18.2188 22.752 20.4854 20.4854C22.752 18.2188 24 15.2056 24 12C24 5.3833 18.6172 0 12 0ZM15.5352 15.5356C14.5908 16.48 13.335 17 12 17C9.24316 17 7 14.7568 7 12C7 9.24316 9.24316 7 12 7C14.7568 7 17 9.24316 17 12C17 13.3359 16.4795 14.5913 15.5352 15.5356Z" fill="url(#paint0_linear_3503_73748)"/>
<defs>
<linearGradient id="paint0_linear_3503_73748" x1="1.12485" y1="6.92884" x2="22.8816" y2="17.0742" gradientUnits="userSpaceOnUse">
<stop stop-color="white" stop-opacity="0.2"/>
<stop offset="1" stop-color="white" stop-opacity="0"/>
</linearGradient>
</defs>
</svg>
