<svg width="122" height="122" viewBox="0 0 122 122" fill="none" xmlns="http://www.w3.org/2000/svg">
<rect width="122" height="122" rx="61" fill="#F3F3F6"/>
<path d="M65.8318 45.3083C65.5727 45.3086 65.3203 45.2255 65.1121 45.0712C64.9038 44.917 64.7507 44.6998 64.6755 44.4519C64.6002 44.2039 64.6068 43.9383 64.6942 43.6943C64.7816 43.4503 64.9452 43.241 65.1608 43.0972C68.3072 40.9997 68.5606 38.4664 68.8539 35.5324C69.1628 32.438 69.514 28.9307 73.609 26.2008C73.8753 26.0231 74.2013 25.9585 74.5152 26.0212C74.8292 26.0839 75.1053 26.2688 75.283 26.5351C75.4606 26.8014 75.5252 27.1274 75.4625 27.4413C75.3998 27.7552 75.215 28.0314 74.9487 28.209C71.8023 30.3066 71.5489 32.8399 71.2556 35.7738C70.9466 38.8683 70.5954 42.3755 66.5004 45.1055C66.3024 45.2375 66.0698 45.3081 65.8318 45.3083Z" fill="#4793EB"/>
<path d="M79.1076 58.5841C78.8062 58.5843 78.5155 58.4717 78.2929 58.2684C78.0702 58.0651 77.9317 57.7859 77.9046 57.4856C77.8775 57.1853 77.9638 56.8858 78.1465 56.646C78.3291 56.4061 78.595 56.2433 78.8916 56.1896C79.0123 56.1667 91.4602 53.8048 93.6386 46.1832C93.6785 46.0268 93.7493 45.8799 93.847 45.7513C93.9446 45.6227 94.0671 45.5151 94.2071 45.4347C94.3471 45.3542 94.5018 45.3027 94.6621 45.2832C94.8224 45.2637 94.9849 45.2765 95.1402 45.3209C95.2954 45.3653 95.4401 45.4405 95.5658 45.5418C95.6915 45.6432 95.7956 45.7687 95.8718 45.911C95.9481 46.0533 95.9951 46.2095 96.0099 46.3703C96.0248 46.5311 96.0072 46.6932 95.9583 46.847C93.3683 55.912 79.897 58.4597 79.3249 58.5647C79.2532 58.5777 79.1805 58.5842 79.1076 58.5841Z" fill="#ED5F5F"/>
<path d="M79.0872 47.7848L77.0524 47.8234C76.8708 47.8269 76.6912 47.7862 76.529 47.7047C76.3667 47.6232 76.2268 47.5034 76.1213 47.3557C76.0157 47.208 75.9478 47.0367 75.9233 46.8569C75.8988 46.677 75.9185 46.4938 75.9806 46.3232L76.6782 44.4103L76.012 42.4877C75.9525 42.3162 75.9356 42.1326 75.963 41.9531C75.9903 41.7735 76.061 41.6033 76.169 41.4572C76.2769 41.3112 76.4188 41.1936 76.5824 41.1147C76.746 41.0358 76.9264 40.998 77.1079 41.0045L79.1415 41.0769L80.7648 39.8495C80.9097 39.74 81.0791 39.6674 81.2583 39.638C81.4376 39.6086 81.6213 39.6233 81.7936 39.6808C81.9658 39.7383 82.1215 39.8369 82.2472 39.9681C82.3728 40.0992 82.4647 40.259 82.5148 40.4336L83.0735 42.39L84.7439 43.5546C84.8926 43.6587 85.0138 43.7974 85.097 43.9588C85.1801 44.1201 85.2228 44.2993 85.2212 44.4808C85.2197 44.6624 85.174 44.8408 85.0881 45.0007C85.0022 45.1606 84.8787 45.2972 84.7282 45.3988L83.0385 46.5357L82.4472 48.4836C82.3944 48.6573 82.3001 48.8156 82.1724 48.9448C82.0447 49.0739 81.8874 49.1699 81.7143 49.2246C81.5411 49.2793 81.3572 49.2909 81.1785 49.2585C80.9998 49.2262 80.8317 49.1507 80.6887 49.0387L79.0872 47.7848Z" fill="#FED200"/>
<path d="M85.7456 63.4116C86.7454 63.4116 87.5559 62.6011 87.5559 61.6013C87.5559 60.6015 86.7454 59.7909 85.7456 59.7909C84.7457 59.7909 83.9352 60.6015 83.9352 61.6013C83.9352 62.6011 84.7457 63.4116 85.7456 63.4116Z" fill="#4793EB"/>
<path d="M94.7972 63.4116C95.4638 63.4116 96.0041 62.8713 96.0041 62.2047C96.0041 61.5382 95.4638 60.9978 94.7972 60.9978C94.1307 60.9978 93.5903 61.5382 93.5903 62.2047C93.5903 62.8713 94.1307 63.4116 94.7972 63.4116Z" fill="#FED200"/>
<path d="M81.5214 32.0325C82.1879 32.0325 82.7283 31.4921 82.7283 30.8256C82.7283 30.159 82.1879 29.6187 81.5214 29.6187C80.8548 29.6187 80.3145 30.159 80.3145 30.8256C80.3145 31.4921 80.8548 32.0325 81.5214 32.0325Z" fill="#ED5F5F"/>
<path d="M92.3834 33.2393C93.05 33.2393 93.5903 32.699 93.5903 32.0325C93.5903 31.3659 93.05 30.8256 92.3834 30.8256C91.7169 30.8256 91.1765 31.3659 91.1765 32.0325C91.1765 32.699 91.7169 33.2393 92.3834 33.2393Z" fill="#FED200"/>
<path d="M59.1941 36.86C60.1939 36.86 61.0044 36.0495 61.0044 35.0497C61.0044 34.0499 60.1939 33.2393 59.1941 33.2393C58.1942 33.2393 57.3837 34.0499 57.3837 35.0497C57.3837 36.0495 58.1942 36.86 59.1941 36.86Z" fill="#FED200"/>
<path d="M61.0043 28.4118C61.6708 28.4118 62.2112 27.8714 62.2112 27.2049C62.2112 26.5383 61.6708 25.998 61.0043 25.998C60.3377 25.998 59.7974 26.5383 59.7974 27.2049C59.7974 27.8714 60.3377 28.4118 61.0043 28.4118Z" fill="#ED5F5F"/>
<path d="M44.5785 40.0148L82.0042 77.4393L32.5132 95.6887C31.6476 96.0081 30.7087 96.0727 29.8075 95.8749C28.9063 95.6772 28.0807 95.2253 27.4283 94.5728C26.776 93.9204 26.3243 93.0947 26.1267 92.1934C25.9291 91.2922 25.9939 90.3532 26.3134 89.4877L44.5785 40.0148Z" fill="#FED200"/>
<path d="M69.368 82.0943L62.4404 84.6529C54.7107 71.7853 49.5581 57.5368 47.2698 42.7014L56.6353 52.0668C59.3722 62.6503 63.6631 72.7694 69.368 82.0943Z" fill="#FD9B02"/>
<path d="M54.7165 87.5012L47.813 90.0356C42.8487 81.0898 39.0831 71.5296 36.6131 61.6013L41.5251 48.3013C43.383 62.0894 47.8606 75.395 54.7165 87.5012Z" fill="#FD9B02"/>
<path d="M40.1855 92.8477L33.3183 95.3822C31.4515 91.7262 29.7757 87.9757 28.2976 84.146L32.3045 73.2719C34.3057 80.032 36.9446 86.5867 40.1855 92.8477Z" fill="#FD9B02"/>
<path d="M82.4961 77.0538C85.324 74.2258 79.2107 63.5276 68.8417 53.1585C58.4726 42.7895 47.7744 36.6762 44.9465 39.5041C42.1185 42.332 48.2318 53.0303 58.6009 63.3993C68.9699 73.7684 79.6682 79.8817 82.4961 77.0538Z" fill="#FF7302"/>
</svg>
