<svg width="12" height="12" viewBox="0 0 12 12" fill="none" xmlns="http://www.w3.org/2000/svg">
<path d="M6.46863 0.377441H5.53113C5.44779 0.377441 5.40613 0.419108 5.40613 0.502441V5.40869H0.750244C0.666911 5.40869 0.625244 5.45036 0.625244 5.53369V6.47119C0.625244 6.55453 0.666911 6.59619 0.750244 6.59619H5.40613V11.5024C5.40613 11.5858 5.44779 11.6274 5.53113 11.6274H6.46863C6.55196 11.6274 6.59363 11.5858 6.59363 11.5024V6.59619H11.2502C11.3336 6.59619 11.3752 6.55453 11.3752 6.47119V5.53369C11.3752 5.45036 11.3336 5.40869 11.2502 5.40869H6.59363V0.502441C6.59363 0.419108 6.55196 0.377441 6.46863 0.377441Z" fill="#373751"/>
</svg>
